<svg width="82" height="31" viewBox="0 0 82 31" fill="none" xmlns="http://www.w3.org/2000/svg"><path fill-rule="evenodd" clip-rule="evenodd" d="M81.5 12a9.9 9.9 0 0 0-1.6-3 7.2 7.2 0 0 0-3.6-2.6h-.4v-.1L75 6h-2c-1.3 0-2.4.2-3.3.7a8 8 0 0 0-4.2 5.2 13 13 0 0 0 0 7.6c.3 1.2.9 2.3 1.6 3.1a8.5 8.5 0 0 0 2.6 2.1l.1.1c.6.3 1.2.4 1.8.5 1.8.4 3.3.1 3.3.1.8 0 1.6-.3 2.3-.6 1.1-.5 2-1.2 2.7-2.1a9 9 0 0 0 1.6-3.1 14.9 14.9 0 0 0 0-7.6Zm-12 1.2c.2-.8.4-1.6.8-2.2.3-.6.8-1 1.3-1.4.5-.4 1.1-.6 1.8-.6a3 3 0 0 1 1.7.5c.6.4 1 .8 1.3 1.4a9.7 9.7 0 0 1 1.1 4.6v.3c0 1 0 1.8-.2 2.6-.2.9-.5 1.6-.8 2.2-.4.6-.8 1-1.4 1.4a3 3 0 0 1-1.7.5c-.7 0-1.3-.2-1.8-.5-.6-.4-1-.8-1.4-1.4-.3-.6-.6-1.3-.8-2.2a11.3 11.3 0 0 1 0-5.2ZM58.1 25.7l-2 2.3-.2.2.2 2.8h3l3.3-3.6V15l-4.3 2.2v8.5Z" fill="#fff"/><path fill-rule="evenodd" clip-rule="evenodd" d="m32.3 5.2-2-2.2-.3-.2.2-2.8h3.1l3.3 3.6V16l-4.3-2.2V5.2Zm28.5 3.1c.8 1 1.3 2 1.7 3.2.3 1 .5 2.3.5 3.7 0 1.4-.2 2.6-.5 3.8a7.8 7.8 0 0 1-6.6 5.8s-1.6.2-3.4-.1a6.4 6.4 0 0 1-1.8-.6h-.1l-1-.5L48 22a10 10 0 0 1-1.6-3c-.4-1.2-.5-2.5-.5-3.8 0-1.4.1-2.7.5-3.8.4-1.2.9-2.2 1.6-3.1a8 8 0 0 1 2.7-2c1-.5 2-.8 3.3-.8h2l.9.2.2.1h.2l1 .5c1 .5 2 1.1 2.6 2Zm-9.6 2.1c-.4.6-.6 1.4-.8 2.2-.2.8-.3 1.6-.3 2.5 0 1 0 1.8.2 2.6.2.9.5 1.6.9 2.1.3.7.8 1.1 1.3 1.5.5.3 1.1.5 1.8.5s1.3-.2 1.8-.5c.6-.4 1-.8 1.4-1.4.3-.6.6-1.3.8-2.2.2-.8.3-1.7.3-2.6v-.3a9.8 9.8 0 0 0-1.2-4.5c-.3-.6-.8-1-1.3-1.4a3 3 0 0 0-1.7-.5c-.7 0-1.3.2-1.8.6-.6.3-1 .8-1.4 1.4ZM39 5.5h4.3V25H39V5.5Z" fill="#fff"/><path fill-rule="evenodd" clip-rule="evenodd" d="M41 1a2 2 0 0 0-2 2 2 2 0 1 0 4 0 2 2 0 0 0-2-2ZM15 9.2c.6.9 1.2 2 1.5 3.1a13.5 13.5 0 0 1 0 7.7 9.1 9.1 0 0 1-1.6 3.1 7.7 7.7 0 0 1-5 2.8s-1.5.3-3.3 0L5 25.2l-.1-.1-1-.5L2.2 23A8.8 8.8 0 0 1 .5 20C.2 18.8 0 17.5 0 16c0-1.3.2-2.6.5-3.8A8 8 0 0 1 4.7 7c1-.5 2-.7 3.3-.8l2.1.1.8.2.2.1h.2l1 .5c1 .5 2 1.1 2.6 2Zm21 3.1a10 10 0 0 0-1.6-3.1 7.2 7.2 0 0 0-3.6-2.5l-.2-.1h-.2v-.1l-.8-.2h-2.1c-1.3 0-2.3.2-3.3.7a8 8 0 0 0-4.2 5.3c-.4 1.2-.5 2.5-.5 3.8 0 1.4.1 2.7.5 3.9a8.5 8.5 0 0 0 4.4 5.3c.5.3 1 .4 1.7.5 1.8.4 3.3.1 3.3.1.9 0 1.6-.3 2.3-.7 1.1-.5 2-1.2 2.7-2 .7-1 1.2-2 1.6-3.2a15.1 15.1 0 0 0 0-7.7Zm-12 1.2a9 9 0 0 1 .8-2.2c.3-.6.8-1.2 1.3-1.5.5-.4 1.2-.6 1.8-.6a3 3 0 0 1 1.8.5c.5.4.9.8 1.2 1.4.4.6.7 1.3.9 2.1.2.8.3 1.7.3 2.6v.3c0 1-.1 1.8-.3 2.7-.2.8-.4 1.5-.8 2.1-.4.6-.8 1-1.3 1.4a3 3 0 0 1-1.8.6c-.7 0-1.3-.2-1.8-.6-.5-.3-1-.8-1.4-1.4l-.8-2.1a11.5 11.5 0 0 1 0-5.3Zm-19.4 0c.2-.8.4-1.6.8-2.2.3-.6.8-1.2 1.3-1.5a3 3 0 0 1 1.8-.6 3 3 0 0 1 1.8.5c.5.4.9.8 1.2 1.4.4.6.7 1.3.9 2.1.2.8.3 1.7.3 2.6v.3c0 1-.1 1.8-.3 2.7l-.8 2.1c-.4.6-.8 1-1.3 1.4a3 3 0 0 1-1.8.6c-.7 0-1.3-.2-1.8-.6-.6-.3-1-.8-1.4-1.4a11.3 11.3 0 0 1-1-4.8c0-.9 0-1.8.2-2.6Z" fill="#fff"/></svg>