<svg width="170" height="64" viewBox="0 0 170 64" fill="none" xmlns="http://www.w3.org/2000/svg"><path fill-rule="evenodd" clip-rule="evenodd" d="M168.9 24.7c-.8-2.5-1.8-4.7-3.3-6.6A15 15 0 0 0 158 13l-.4-.1-.4-.1-.2-.1-1.5-.4c-1.2-.2-2.7-.3-4.4-.2-2.6.2-4.8.7-6.8 1.6a16.7 16.7 0 0 0-8.8 11c-.7 2.3-1 5-1 7.8a21.4 21.4 0 0 0 4.4 14.4 17.7 17.7 0 0 0 5.4 4.4h.2l.1.1h.1c1.1.6 2.3.9 3.6 1.1 3.7.8 6.9.2 6.9.2a16.1 16.1 0 0 0 10.3-5.7c1.5-1.8 2.6-4 3.3-6.4a31 31 0 0 0 0-15.9Zm-25 2.3c.5-1.7 1-3.3 1.7-4.6a9.7 9.7 0 0 1 2.8-3c1-.7 2.3-1.2 3.7-1.2 1.4 0 2.6.3 3.7 1 1 .8 1.9 1.7 2.6 3a20.2 20.2 0 0 1 2.4 9.6v.6c0 1.9-.2 3.8-.6 5.5-.4 1.7-1 3.1-1.7 4.4a9.3 9.3 0 0 1-2.7 3c-1.1.7-2.4 1-3.8 1s-2.6-.3-3.7-1c-1-.8-2-1.7-2.8-3a16 16 0 0 1-1.7-4.4 23.5 23.5 0 0 1 .1-11Zm-23.3 26-4.2 4.7-.4.5.4 5.8h6.4l6.7-7.5V32.6l-.2-1.8-8.7 4.5V53Z" fill="#fff"/><path fill-rule="evenodd" clip-rule="evenodd" d="m66.7 10.9-4.2-4.7L62 6l.4-5.9 6.4.1 6.9 7.4v24.2l-.2 1.3-8.8-4.6V11Zm58.9 6.5c1.5 1.9 2.5 4 3.3 6.4.8 2.4 1.1 5 1.1 7.8a27 27 0 0 1-1 7.9c-.8 2.4-1.9 4.6-3.4 6.3a16 16 0 0 1-10.4 5.7s-3.2.5-6.9-.2c-1.3-.2-2.4-.5-3.5-1l-.1-.1h-.1l-.1-.2h-.1l-1.8-1a18 18 0 0 1-3.7-3.2 21 21 0 0 1-3.3-6.4c-.7-2.4-1-5-1-7.9 0-2.7.2-5.4 1-7.8a16.7 16.7 0 0 1 8.8-10.8c2-.9 4.2-1.4 6.8-1.5a20 20 0 0 1 4.3.1l1.6.4h.2l.4.2.4.1c.6.2 1.4.5 2 .9 2.2 1 4 2.4 5.5 4.3Zm-20 4.2c-.7 1.3-1.2 2.9-1.6 4.5a29 29 0 0 0-.6 5.3c0 2 0 3.8.5 5.5.4 1.7 1 3.1 1.7 4.4a9.2 9.2 0 0 0 2.8 3c1 .7 2.3 1 3.7 1 1.4 0 2.7-.3 3.8-1 1-.8 2-1.7 2.7-3 .8-1.3 1.3-2.7 1.7-4.4.4-1.7.6-3.5.6-5.4v-.6a20.5 20.5 0 0 0-2.4-9.6c-.7-1.1-1.6-2-2.6-2.8-1.1-.7-2.3-1-3.7-1-1.4 0-2.7.4-3.7 1.1-1.1.8-2 1.8-2.8 3Zm-25.1-10h9V52h-9V11.5Z" fill="#fff"/><path fill-rule="evenodd" clip-rule="evenodd" d="M84.9 2a4.1 4.1 0 0 0-4.2 4.2c0 2.4 1.9 4.2 4.2 4.1 2.3 0 4.1-1.8 4.1-4.1S87.2 2 84.9 2Zm-54 17c1.5 2 2.5 4.1 3.3 6.6.8 2.4 1.1 5 1.1 8 0 2.8-.3 5.5-1 8a19 19 0 0 1-3.4 6.5 16 16 0 0 1-10.3 5.7s-3.2.5-6.9-.2c-1.2-.2-2.4-.5-3.5-1l-.2-.2H10L8 51.2c-1.4-1-2.6-2-3.6-3.3C2.9 46 1.8 44 1 41.4c-.8-2.4-1.1-5-1.1-8 0-2.7.3-5.5 1-8 .8-2.5 1.9-4.6 3.4-6.6 1.4-1.8 3.3-3.3 5.4-4.3 2-1 4.2-1.5 6.8-1.6 1.7-.1 3.2 0 4.3.2l1.6.3.2.1.3.1.5.2c.6.1 1.3.5 2 .8 2 1 4 2.5 5.4 4.4Zm43.6 6.6c-.8-2.5-1.8-4.7-3.3-6.6a15 15 0 0 0-7.4-5.2l-.5-.2H63c-.1 0-.2 0-.2-.2l-1.6-.3c-1.2-.2-2.6-.3-4.3-.2-2.6 0-4.8.6-6.8 1.6a16.7 16.7 0 0 0-8.8 11c-.7 2.4-1 5.2-1 8s.3 5.5 1 8c.8 2.4 2 4.6 3.4 6.5 1 1.2 2.2 2.3 3.6 3.3l1.9 1v.1h.2l.1.1c1 .6 2.2.9 3.5 1.1 3.7.7 7 .2 7 .2A16.1 16.1 0 0 0 71.2 48a19 19 0 0 0 3.2-6.5 31.6 31.6 0 0 0 0-16v.1Zm-24.9 2.3c.4-1.6 1-3.2 1.7-4.5a9.7 9.7 0 0 1 2.8-3.1c1-.8 2.3-1.2 3.7-1.2a6 6 0 0 1 3.6 1c1 .8 2 1.7 2.6 3a20.6 20.6 0 0 1 2.4 9.7v.6c0 2-.2 3.8-.5 5.5-.4 1.7-1 3.2-1.7 4.5a9.4 9.4 0 0 1-2.8 3c-1 .8-2.3 1-3.7 1-1.4 0-2.6-.3-3.7-1-1-.7-2-1.7-2.8-3-.8-1.3-1.3-2.8-1.7-4.5a24 24 0 0 1 .1-11ZM9.4 28a18 18 0 0 1 1.7-4.5 9.6 9.6 0 0 1 2.8-3.1c1-.8 2.3-1.2 3.7-1.2a6 6 0 0 1 3.6 1c1 .8 2 1.7 2.7 3a21.4 21.4 0 0 1 2.4 9.7v.6c0 2-.3 3.8-.6 5.5a17 17 0 0 1-1.7 4.5 9.3 9.3 0 0 1-2.8 3c-1 .8-2.3 1-3.7 1-1.4 0-2.6-.3-3.7-1-1-.7-2-1.7-2.8-3-.6-1-1.1-2.5-1.6-4.3-.4-1.8-.5-3.7-.5-5.6 0-2 0-3.8.5-5.5Z" fill="#fff"/></svg>